<svg xmlns="http://www.w3.org/2000/svg" width="64" height="64" viewBox="0 0 64 64" fill="none">
  <!-- Background circle -->
  <circle cx="32" cy="32" r="30" fill="#1a1a2e" />
  
  <!-- Open book -->
  <path d="M16 20C16 18.8954 16.8954 18 18 18H46C47.1046 18 48 18.8954 48 20V44C48 45.1046 47.1046 46 46 46H18C16.8954 46 16 45.1046 16 44V20Z" fill="#0f3460" />
  
  <!-- Book pages -->
  <path d="M32 18V46" stroke="#e94560" stroke-width="2" />
  <path d="M24 26H29" stroke="#f0f0f0" stroke-width="1.5" />
  <path d="M24 30H29" stroke="#f0f0f0" stroke-width="1.5" />
  <path d="M24 34H29" stroke="#f0f0f0" stroke-width="1.5" />
  <path d="M35 26H40" stroke="#f0f0f0" stroke-width="1.5" />
  <path d="M35 30H40" stroke="#f0f0f0" stroke-width="1.5" />
  <path d="M35 34H40" stroke="#f0f0f0" stroke-width="1.5" />
  
  <!-- Magical sparkle elements -->
  <circle cx="20" cy="16" r="2" fill="#e94560" />
  <circle cx="44" cy="16" r="2" fill="#e94560" />
  <circle cx="32" cy="12" r="2" fill="#e94560" />
  
  <!-- Stars -->
  <path d="M52 24L53.5 27L57 27.5L53.5 30L52 33L50.5 30L47 27.5L50.5 27L52 24Z" fill="#f0f0f0" />
  <path d="M12 40L13.5 43L17 43.5L13.5 46L12 49L10.5 46L7 43.5L10.5 43L12 40Z" fill="#f0f0f0" />
</svg> 